<svg xmlns="http://www.w3.org/2000/svg" width="20.792" height="16.914" viewBox="0 0 20.792 16.914">
  <g id="Groupe_1200" data-name="Groupe 1200" transform="translate(-37.85 -407.875)">
    <g id="Groupe_1185" data-name="Groupe 1185" transform="translate(42.111 411.575)">
      <g id="Groupe_1184" data-name="Groupe 1184">
        <path id="Tracé_147" data-name="Tracé 147" d="M114.686,137.141H103.017a.3.3,0,1,0,0,.6h11.669a.3.3,0,0,0,0-.6Z" transform="translate(-102.717 -137.141)" fill="#bfc0c1" stroke="#707070" stroke-width="0.3"/>
      </g>
    </g>
    <g id="Groupe_1187" data-name="Groupe 1187" transform="translate(42.111 414.846)">
      <g id="Groupe_1186" data-name="Groupe 1186" transform="translate(0 0)">
        <path id="Tracé_148" data-name="Tracé 148" d="M114.686,218.869H103.017a.3.3,0,1,0,0,.6h11.669a.3.3,0,1,0,0-.6Z" transform="translate(-102.717 -218.869)" fill="#bfc0c1" stroke="#707070" stroke-width="0.3"/>
      </g>
    </g>
    <g id="Groupe_1189" data-name="Groupe 1189" transform="translate(45.937 416.969)">
      <g id="Groupe_1188" data-name="Groupe 1188">
        <path id="Tracé_149" data-name="Tracé 149" d="M202.619,271.909H198.6a.3.3,0,0,0,0,.6h4.018a.3.3,0,1,0,0-.6Z" transform="translate(-198.301 -271.909)" fill="#bfc0c1" stroke="#707070" stroke-width="0.3"/>
      </g>
    </g>
    <g id="Groupe_1191" data-name="Groupe 1191" transform="translate(45.076 413.204)">
      <g id="Groupe_1190" data-name="Groupe 1190">
        <path id="Tracé_150" data-name="Tracé 150" d="M185.8,177.838h-8.7a.3.3,0,0,0,0,.6h8.7a.3.3,0,0,0,0-.6Z" transform="translate(-176.797 -177.838)" fill="#bfc0c1" stroke="#707070" stroke-width="0.3"/>
      </g>
    </g>
    <g id="Groupe_1193" data-name="Groupe 1193" transform="translate(42.111 413.204)">
      <g id="Groupe_1192" data-name="Groupe 1192">
        <path id="Tracé_151" data-name="Tracé 151" d="M104.585,177.837h-1.567a.3.3,0,1,0,0,.6h1.567a.3.3,0,0,0,0-.6Z" transform="translate(-102.717 -177.837)" fill="#bfc0c1" stroke="#707070" stroke-width="0.3"/>
      </g>
    </g>
    <g id="Groupe_1195" data-name="Groupe 1195" transform="translate(39.44 409.525)">
      <g id="Groupe_1194" data-name="Groupe 1194">
        <path id="Tracé_152" data-name="Tracé 152" d="M53.486,87.456a.37.37,0,0,0-.261-.106h0a1.133,1.133,0,0,1-1.135-1.084.369.369,0,0,0-.37-.352H37.79a.369.369,0,0,0-.37.353,1.143,1.143,0,0,1-1.082,1.082.369.369,0,0,0-.353.37v7.765a.369.369,0,0,0,.353.37,1.143,1.143,0,0,1,1.082,1.083.369.369,0,0,0,.37.352h8.868a.3.3,0,1,0,0-.6H38a1.724,1.724,0,0,0-1.411-1.411V87.924A1.724,1.724,0,0,0,38,86.514H51.514A1.733,1.733,0,0,0,53,87.935v5.1a.3.3,0,0,0,.6,0V87.719A.367.367,0,0,0,53.486,87.456Z" transform="translate(-35.985 -85.913)" fill="#bfc0c1" stroke="#707070" stroke-width="0.3"/>
      </g>
    </g>
    <g id="Groupe_1197" data-name="Groupe 1197" transform="translate(38 408.025)">
      <g id="Groupe_1196" data-name="Groupe 1196" transform="translate(0 0)">
        <path id="Tracé_153" data-name="Tracé 153" d="M19.658,48.445H.834A.835.835,0,0,0,0,49.279V61.985a.835.835,0,0,0,.834.834H13.443L13,63.754a.357.357,0,0,0,.379.506l.831-.134.464.761a.356.356,0,0,0,.3.171h.018a.357.357,0,0,0,.3-.2l.806-1.688.805,1.688a.357.357,0,0,0,.3.2h.018a.356.356,0,0,0,.3-.171L18,64.127l.831.134a.357.357,0,0,0,.379-.506l-.446-.935h.9a.835.835,0,0,0,.834-.834V49.279A.835.835,0,0,0,19.658,48.445ZM14.949,64.19l-.314-.516a.355.355,0,0,0-.361-.167l-.534.086.562-1.178a1.071,1.071,0,0,0,.865.317.469.469,0,0,1,.316.085,1.066,1.066,0,0,0,.093.059Zm1.225-1.781h0a.472.472,0,0,1-.137,0h0a.468.468,0,0,1-.2-.081,1.07,1.07,0,0,0-.62-.2q-.05,0-.1,0a.469.469,0,0,1-.471-.272,1.07,1.07,0,0,0-.138-.223l-.008-.01-.009-.011-.011-.012a1.069,1.069,0,0,0-.362-.272.47.47,0,0,1-.272-.471,1.07,1.07,0,0,0-.193-.721.47.47,0,0,1,0-.544,1.07,1.07,0,0,0,.193-.721.47.47,0,0,1,.272-.471,1.07,1.07,0,0,0,.528-.528.47.47,0,0,1,.471-.272,1.07,1.07,0,0,0,.721-.193.47.47,0,0,1,.544,0,1.071,1.071,0,0,0,.721.193.469.469,0,0,1,.471.272,1.07,1.07,0,0,0,.528.528.47.47,0,0,1,.272.471,1.07,1.07,0,0,0,.193.721.469.469,0,0,1,0,.544,1.071,1.071,0,0,0-.193.721.47.47,0,0,1-.272.471,1.07,1.07,0,0,0-.361.271l-.012.013-.008.01-.009.012a1.068,1.068,0,0,0-.138.223.47.47,0,0,1-.471.272,1.072,1.072,0,0,0-.721.193A.468.468,0,0,1,16.174,62.409Zm1.758,1.1a.356.356,0,0,0-.361.167l-.314.516-.627-1.314a1.071,1.071,0,0,0,.093-.059.469.469,0,0,1,.316-.085,1.07,1.07,0,0,0,.865-.317l.562,1.178Zm1.959-1.522a.233.233,0,0,1-.233.233H18.475l-.155-.325.024-.012a1.071,1.071,0,0,0,.62-1.074.469.469,0,0,1,.085-.316,1.071,1.071,0,0,0,0-1.24.469.469,0,0,1-.085-.316,1.071,1.071,0,0,0-.62-1.074.47.47,0,0,1-.231-.231,1.071,1.071,0,0,0-1.074-.62.469.469,0,0,1-.316-.085,1.071,1.071,0,0,0-1.24,0,.469.469,0,0,1-.316.085,1.071,1.071,0,0,0-1.074.62.469.469,0,0,1-.231.231,1.071,1.071,0,0,0-.62,1.074.469.469,0,0,1-.085.316,1.071,1.071,0,0,0,0,1.24.469.469,0,0,1,.085.316,1.071,1.071,0,0,0,.62,1.074l.024.012-.155.325H.834A.233.233,0,0,1,.6,61.985V49.279a.233.233,0,0,1,.233-.233H19.658a.233.233,0,0,1,.233.233Z" transform="translate(0 -48.445)" fill="#bfc0c1" stroke="#707070" stroke-width="0.3"/>
      </g>
    </g>
    <g id="Groupe_1199" data-name="Groupe 1199" transform="translate(52.214 417.585)">
      <g id="Groupe_1198" data-name="Groupe 1198">
        <path id="Tracé_154" data-name="Tracé 154" d="M357.009,287.312a1.866,1.866,0,1,0,1.866,1.866A1.869,1.869,0,0,0,357.009,287.312Zm0,3.132a1.266,1.266,0,1,1,1.266-1.266A1.267,1.267,0,0,1,357.009,290.444Z" transform="translate(-355.143 -287.312)" fill="#bfc0c1" stroke="#707070" stroke-width="0.3"/>
      </g>
    </g>
  </g>
</svg>
