<svg xmlns="http://www.w3.org/2000/svg" xmlns:xlink="http://www.w3.org/1999/xlink" width="19" height="19" viewBox="0 0 19 19">
  <defs>
    <clipPath id="clip-path">
      <rect id="Rectangle_263" data-name="Rectangle 263" width="19" height="19" transform="translate(35.313 168.313)" fill="#fff" stroke="#707070" stroke-width="1"/>
    </clipPath>
  </defs>
  <g id="Groupe_de_masques_1" data-name="Groupe de masques 1" transform="translate(-35.313 -168.313)" clip-path="url(#clip-path)">
    <g id="sydney-opera-house" transform="translate(35 168.478)">
      <g id="Groupe_1173" data-name="Groupe 1173" transform="translate(0)">
        <path id="Tracé_127" data-name="Tracé 127" d="M18.988,8.675,17.357,7.189V2.259a.568.568,0,0,0-.568-.568H12.862a.568.568,0,0,0-.568.568v.316L10.323.78a.986.986,0,0,0-1.334,0L.324,8.675A.99.99,0,0,0,.991,10.4H2.375v7.911a.568.568,0,0,0,.568.568H7.693a.568.568,0,0,0,.568-.568v-4.8h2.791v4.8a.568.568,0,0,0,.568.568h4.749a.568.568,0,0,0,.568-.568V10.4h1.384a.99.99,0,0,0,.667-1.722Zm-2.619.587a.568.568,0,0,0-.568.568V17.74H12.188v-4.8a.568.568,0,0,0-.568-.568H7.693a.568.568,0,0,0-.568.568v4.8H3.511V9.83a.568.568,0,0,0-.568-.568H1.367L9.656,1.709l2.823,2.572a.568.568,0,0,0,.95-.42V2.827h2.791V7.439a.568.568,0,0,0,.185.42l1.539,1.4Z" transform="translate(0 -0.52)" fill="#c1c1c3" stroke="#707070" stroke-width="0.3"/>
      </g>
    </g>
  </g>
</svg>
